<svg width="280" height="61" viewBox="0 0 280 61" fill="none" xmlns="http://www.w3.org/2000/svg">
<path d="M90.6956 40.6905C84.4305 40.6905 79.3534 35.5789 79.3534 29.2765C79.3534 23.0395 84.3265 17.9715 90.5005 17.8712C90.5655 17.8668 90.6306 17.8668 90.6956 17.8668C90.7604 17.8668 90.8257 17.8668 90.8907 17.8712C97.0647 17.9715 102.038 23.0395 102.038 29.2765C102.038 35.5789 96.9607 40.6905 90.6956 40.6905ZM102.038 12.0584V16.397C99.0201 13.7059 95.0484 12.0704 90.6956 12.0704C81.2481 12.0704 73.5913 19.7771 73.5913 29.2765C73.5913 38.7802 81.2481 46.487 90.6956 46.487C95.0484 46.487 99.0201 44.8514 102.038 42.1604V46.4716H107.822V12.0584H102.038Z" fill="#222222"/>
<path d="M90.8906 17.8712C90.8256 17.8668 90.7603 17.8669 90.6955 17.8669C90.6305 17.8669 90.5655 17.8668 90.5005 17.8712C90.5655 17.8753 90.6305 17.8799 90.6955 17.8799C90.7603 17.8799 90.8256 17.8753 90.8906 17.8712Z" fill="#222222"/>
<path d="M139.23 29.1855L156.351 11.9622H148.17L133.893 26.3246H130.97V0.814507H125.187V46.4739H130.97V32.1429H133.832L135.059 33.3812L147.975 46.3742H156.156L139.152 29.2686L139.23 29.1855Z" fill="#222222"/>
<path d="M245.877 29.2829V46.4716H240.093V26.4566C240.093 21.7157 236.273 17.8688 231.556 17.8688C226.843 17.8688 223.019 21.7157 223.019 26.4566V29.2829V46.4716H217.235V29.2829L217.252 26.666C217.257 26.5962 217.257 26.5264 217.257 26.4566C217.257 26.3869 217.257 26.3171 217.252 26.2473C217.252 26.1252 217.248 26.0074 217.235 25.8897C216.949 21.4147 213.242 17.8688 208.72 17.8688C204.007 17.8688 200.183 21.7157 200.183 26.4566V46.4716H194.399V12.0593H200.183V14.8943C202.563 13.1105 205.516 12.0593 208.711 12.0593H208.724C211.915 12.0637 214.855 13.1148 217.235 14.8899C218.332 15.7099 219.308 16.6825 220.136 17.7816C220.955 16.6869 221.931 15.7186 223.019 14.903C225.403 13.1148 228.356 12.0593 231.556 12.0593C234.756 12.0593 237.708 13.1148 240.093 14.903C243.596 17.5243 245.868 21.7244 245.868 26.4566L245.877 29.2829Z" fill="#222222"/>
<path d="M119.4 0.81189H113.616V46.4716H119.4V0.81189Z" fill="#222222"/>
<path d="M160.505 26.3415C161.776 21.5267 166.103 17.9631 171.271 17.8761C171.336 17.8718 171.401 17.8718 171.466 17.8718C171.531 17.8718 171.596 17.8718 171.661 17.8761C176.83 17.9631 181.161 21.5267 182.431 26.3415H160.505ZM188.332 32.16C188.488 31.2223 188.57 30.2628 188.57 29.2814C188.57 28.2783 188.484 27.297 188.319 26.3415C186.936 18.2422 179.916 12.075 171.466 12.075C162.023 12.075 154.362 19.7821 154.362 29.2814C154.362 38.7852 162.023 46.4916 171.466 46.4916C177.762 46.4916 183.259 43.0722 186.229 37.978H178.806C176.83 39.6749 174.263 40.6955 171.466 40.6955C168.665 40.6955 166.103 39.6749 164.126 37.978C162.374 36.4867 161.082 34.4629 160.488 32.16H188.332Z" fill="#222222"/>
<path d="M251.966 60.7899V60.7942H251.806C251.858 60.7942 251.914 60.7942 251.966 60.7899Z" fill="#222222"/>
<path d="M273.609 12.0593L266.912 26.3694L264.183 32.1876L263.547 33.5525L262.906 32.1876L260.183 26.3694L253.484 12.0593H247.089L253.787 26.3694L256.509 32.1876L258.581 36.6102L259.238 38.0059L260.348 40.3829L257.498 46.4716L255.812 50.0742C255.795 50.1262 255.769 50.1788 255.743 50.2312C254.364 53.0531 251.481 54.9939 248.147 54.9939H245.876V60.6319C246.604 60.7465 247.348 60.8119 248.108 60.8119C249.07 60.8119 250.011 60.7162 250.917 60.533C252.99 60.1187 254.906 59.2508 256.55 58.0426C256.645 57.9769 256.734 57.9074 256.827 57.8333C257.876 57.0177 258.813 56.0625 259.602 54.9939C260.053 54.3833 260.455 53.7335 260.81 53.0531L261.275 52.0586C261.284 52.0456 261.287 52.0325 261.293 52.0194L263.542 47.2087L263.888 46.4716L266.741 40.3785L267.851 38.0059L270.574 32.1876L273.303 26.3694L280 12.0593H273.609Z" fill="#222222"/>
<path d="M0 46.4739L21.3747 0.814503H27.9563L31.0953 7.51812L34.2907 14.3439L49.331 46.4739H42.9367L31.0953 21.174L27.8999 14.3482L24.6655 7.43963L6.39458 46.4739H0Z" fill="#58C1F5"/>
<path d="M12.8286 46.4739L34.203 0.814507H40.7846L43.9237 7.51812L47.1191 14.3439L62.1555 46.4658L55.7714 46.487L43.9237 21.174L40.7282 14.3482L37.4938 7.43963L19.2229 46.4739H12.8286Z" fill="#58C1F5"/>
</svg>
